<?xml version="1.0" standalone="no"?>
<!DOCTYPE svg PUBLIC "-//W3C//DTD SVG 20010904//EN"
 "http://www.w3.org/TR/2001/REC-SVG-20010904/DTD/svg10.dtd">
<svg version="1.0" xmlns="http://www.w3.org/2000/svg"
 width="512.000000pt" height="512.000000pt" viewBox="0 0 512.000000 512.000000"
 preserveAspectRatio="xMidYMid meet">
<metadata>
Created by potrace 1.11, written by Peter Selinger 2001-2013
</metadata>
<g transform="translate(0.000000,512.000000) scale(0.100000,-0.100000)"
fill="#000000" stroke="none">
<path d="M380 5099 c-65 -29 -332 -296 -359 -359 -24 -56 -22 -149 4 -201 9
-19 175 -192 368 -386 l351 -352 -31 -58 c-17 -32 -36 -82 -41 -112 -6 -32 -9
-337 -8 -753 l1 -700 24 -19 c31 -25 75 -24 101 3 11 12 20 27 20 32 1 6 2
328 3 716 2 653 3 708 20 745 l18 39 379 -379 380 -380 236 -1 236 -1 58 -58
59 -59 111 0 c106 0 111 1 136 26 23 22 26 32 20 62 -9 48 -34 60 -129 62 -75
1 -80 2 -113 36 l-35 34 -2 237 -2 237 -150 150 -150 151 375 -3 375 -3 45
-27 c55 -32 81 -60 112 -118 l23 -45 0 -1442 c1 -794 -1 -1443 -2 -1443 -2 0
-27 13 -56 29 -28 17 -74 35 -102 41 -35 8 -314 12 -942 12 -826 -1 -892 1
-897 16 -3 9 -5 264 -5 565 1 435 -2 551 -12 563 -36 44 -108 36 -128 -14 -13
-34 -11 -1544 2 -1617 24 -136 133 -257 274 -306 53 -18 114 -19 1564 -19
l1510 0 24 25 c17 19 22 35 19 58 -8 65 19 61 -566 67 l-532 5 1 75 c1 41 2
81 2 88 1 9 152 12 719 12 756 1 735 -1 760 46 28 53 -13 104 -87 105 -25 0
-346 0 -713 0 -368 0 -668 2 -668 5 0 3 9 21 19 42 26 50 66 87 126 113 l49
22 881 -1 c484 0 888 -1 898 -1 18 -1 18 -11 15 -163 -3 -144 -6 -168 -25
-203 -29 -54 -65 -90 -116 -118 -40 -21 -55 -22 -302 -25 -248 -3 -261 -4
-282 -24 -15 -14 -23 -33 -23 -52 1 -72 17 -76 303 -76 193 0 255 3 298 16
140 41 242 143 283 283 14 48 16 228 16 1681 0 1453 -2 1633 -16 1681 -41 142
-141 242 -284 283 -48 14 -148 16 -875 14 l-820 -3 -77 -38 c-50 -24 -90 -52
-115 -81 l-38 -44 -56 52 c-60 56 -121 89 -191 106 -25 5 -228 10 -478 10
l-435 0 -550 551 c-303 302 -570 562 -594 577 -59 35 -148 39 -211 11z m133
-140 c12 -6 63 -53 114 -104 l92 -92 -181 -182 -180 -181 -99 98 c-104 104
-122 138 -99 183 16 31 226 245 265 270 34 22 57 24 88 8z m894 -881 c315
-315 578 -581 583 -590 8 -14 1 -27 -38 -65 -27 -26 -55 -53 -63 -60 -13 -10
-113 86 -604 577 l-588 588 63 61 c35 34 65 61 68 61 3 0 263 -258 579 -572z
m-224 -246 l588 -588 -49 -49 c-26 -28 -56 -56 -65 -64 -16 -12 -74 43 -605
574 l-588 588 63 63 c35 35 65 64 66 64 1 0 267 -265 590 -588z m3632 -46 c66
-31 102 -67 131 -130 l24 -51 0 -1397 0 -1396 -905 -1 c-831 0 -910 -1 -958
-17 -48 -16 -109 -45 -132 -64 -7 -6 -10 474 -9 1434 l0 1443 28 56 c29 61 82
109 143 132 31 11 177 14 833 14 l795 1 50 -24z m-2779 -598 l-1 -103 -103 -1
c-103 -2 -103 -2 -85 19 18 20 187 187 189 187 1 0 1 -46 0 -102z m601 -2539
c21 -6 54 -23 74 -38 35 -25 89 -97 89 -119 0 -7 -219 -10 -709 -10 -798 -1
-761 3 -761 -71 0 -20 4 -41 8 -47 22 -33 49 -34 764 -34 l714 0 1 -90 1 -90
-903 0 -902 0 -51 26 c-64 32 -118 93 -136 154 -8 27 -13 102 -14 187 -1 139
-1 142 21 145 12 2 414 2 894 1 659 -1 882 -4 910 -14z"/>
<path d="M3707 3462 c-54 -6 -78 -85 -38 -125 21 -21 29 -22 298 -23 276 -1
277 -1 300 22 13 13 23 35 23 52 0 29 -31 71 -53 73 -36 3 -506 3 -530 1z"/>
<path d="M3337 2939 c-31 -32 -30 -68 4 -104 19 -19 34 -20 612 -20 329 -1
604 3 620 8 50 16 65 88 26 123 -20 18 -46 19 -628 20 l-606 0 -28 -27z"/>
<path d="M3373 2632 c-13 -2 -32 -15 -43 -30 -24 -30 -20 -65 11 -97 19 -19
34 -20 616 -20 514 0 602 2 628 15 31 16 41 43 31 86 -12 48 -13 48 -636 48
-322 1 -595 0 -607 -2z"/>
<path d="M3370 2297 c-60 -15 -74 -81 -27 -123 24 -20 30 -21 630 -20 580 1
606 2 626 20 26 24 28 76 2 107 l-18 23 -591 0 c-326 1 -605 -2 -622 -7z"/>
<path d="M3465 1970 c-60 -3 -116 -9 -123 -13 -45 -30 -32 -109 22 -126 19 -7
247 -10 619 -10 567 1 588 2 612 21 18 14 25 29 25 54 0 48 -29 74 -82 74
-372 4 -988 4 -1073 0z"/>
<path d="M3505 1615 c-14 -13 -25 -36 -25 -50 0 -14 11 -37 25 -50 l24 -25
519 0 c510 0 520 0 546 21 34 27 36 79 4 109 -21 20 -32 20 -545 20 l-524 0
-24 -25z"/>
</g>
</svg>
